<?xml version="1.0" encoding="UTF-8"?>
<svg width="752pt" height="752pt" version="1.1" viewBox="0 0 752 752" xmlns="http://www.w3.org/2000/svg">
 <defs>
  <clipPath id="a">
   <path d="m206 139.21h352v473.58h-352z"/>
  </clipPath>
 </defs>
 <g clip-path="url(#a)">
  <path d="m206.86 139.21h147.3c67.086 0 115.79 9.543 146.11 28.633 30.324 19.086 45.48 49.469 45.48 91.145 1.0508 24.738-5.9258 49.152-19.887 69.602-6.1719 8.7227-14.043 16.113-23.137 21.73-9.0977 5.6133-19.23 9.3398-29.801 10.953v3.2188c30.016 6.6914 51.496 19.211 64.449 37.562 14.227 21.672 21.188 47.305 19.883 73.191 0.94531 19.402-2.8164 38.742-10.961 56.375-8.1406 17.633-20.426 33.035-35.809 44.898-31.176 24.18-73.527 36.273-127.05 36.273h-176.58zm100.35 187.44h58.277c27.191 0 46.891-4.2031 59.105-12.609 6.3594-4.8359 11.387-11.211 14.609-18.52 3.2188-7.3125 4.5273-15.324 3.8047-23.277 0.62109-7.7109-0.91016-15.441-4.418-22.332-3.5117-6.8945-8.8672-12.676-15.469-16.703-13.441-7.8594-34.492-11.785-63.156-11.785h-52.754zm0 79.641v123.27h65.367c27.621 0 47.996-5.2812 61.133-15.836 6.8242-6.0039 12.156-13.512 15.574-21.934 3.4219-8.4219 4.832-17.523 4.125-26.586 0-39.277-28.051-58.918-84.145-58.918z"/>
 </g>
</svg>
