<?xml version="1.0" encoding="UTF-8"?>
<svg width="752pt" height="752pt" version="1.1" viewBox="0 0 752 752" xmlns="http://www.w3.org/2000/svg">
 <defs>
  <clipPath id="b">
   <path d="m139.21 179h65.789v362h-65.789z"/>
  </clipPath>
  <clipPath id="a">
   <path d="m139.21 343h229.79v66h-229.79z"/>
  </clipPath>
 </defs>
 <g clip-path="url(#b)">
  <path d="m139.21 179.19h65.605v360.82h-65.605z"/>
 </g>
 <path d="m303.22 179.19h65.602v360.82h-65.602z"/>
 <g clip-path="url(#a)">
  <path d="m368.82 343.2v65.605h-229.61v-65.605z"/>
 </g>
 <path d="m500.99 215.11c19.328 0 35.961 3.5547 49.891 10.664 14.215 7.1055 25.016 16.77 32.406 28.996 7.3945 12.223 11.09 25.867 11.09 40.938 0 16.203-3.5547 31.84-10.664 46.906-6.8203 14.781-18.336 31.27-34.539 49.465-16.203 18.195-39.941 42.215-71.211 72.066h122.81l-5.9688 43.07h-178.68v-40.086c36.391-36.957 62.402-64.246 78.039-81.871 15.918-17.91 27.148-33.121 33.688-45.629 6.8242-12.793 10.234-26.012 10.234-39.66 0-13.074-3.8398-23.309-11.516-30.703-7.3906-7.3906-17.34-11.086-29.848-11.086-11.09 0-20.754 2.418-29 7.25-8.2422 4.5469-16.914 12.223-26.008 23.027l-33.691-26.438c24.168-31.273 55.152-46.91 92.965-46.91z"/>
</svg>
