<?xml version="1.0" encoding="UTF-8"?>
<svg width="752pt" height="752pt" version="1.1" viewBox="0 0 752 752" xmlns="http://www.w3.org/2000/svg">
 <defs>
  <clipPath id="b">
   <path d="m139.21 179h65.789v362h-65.789z"/>
  </clipPath>
  <clipPath id="a">
   <path d="m139.21 343h229.79v66h-229.79z"/>
  </clipPath>
 </defs>
 <g clip-path="url(#b)">
  <path d="m139.21 179.19h65.605v360.82h-65.605z"/>
 </g>
 <path d="m303.22 179.19h65.602v360.82h-65.602z"/>
 <g clip-path="url(#a)">
  <path d="m368.82 343.2v65.605h-229.61v-65.605z"/>
 </g>
 <path d="m500.56 215.11c19.047 0 35.395 3.2695 49.039 9.8086 13.93 6.5391 24.309 15.352 31.129 26.438 7.1094 11.09 10.664 23.312 10.664 36.676 0 17.34-4.9766 31.84-14.926 43.496-9.9531 11.371-23.598 19.328-40.938 23.879 19.047 1.7031 34.68 8.5273 46.906 20.469 12.223 11.941 18.336 28.426 18.336 49.465 0 16.488-4.2656 31.414-12.793 44.773-8.2422 13.363-20.184 24.023-35.82 31.984-15.637 7.6758-34.113 11.512-55.434 11.512-39.23 0-70.219-13.785-92.961-41.363l30.273-28.996c9.668 9.6641 19.191 16.773 28.57 21.32 9.3828 4.2656 19.758 6.3984 31.133 6.3984 15.348 0 27.574-4.2656 36.672-12.793 9.3789-8.8125 14.07-20.613 14.07-35.395 0-16.488-4.4062-28.285-13.219-35.395-8.5273-7.1055-21.32-10.66-38.379-10.66h-22.602l6.3984-38.805h15.352c13.93 0 25.016-3.8359 33.262-11.512 8.5273-7.6797 12.793-18.336 12.793-31.984 0-11.656-3.8398-20.754-11.516-27.289-7.6758-6.8242-17.91-10.234-30.703-10.234-11.086 0-21.18 2.1289-30.277 6.3945-9.0938 3.9805-18.191 10.234-27.289 18.762l-27.719-30.273c25.871-24.449 55.863-36.676 89.977-36.676z"/>
</svg>
