<?xml version="1.0" encoding="UTF-8"?>
<svg width="752pt" height="752pt" version="1.1" viewBox="0 0 752 752" xmlns="http://www.w3.org/2000/svg">
 <defs>
  <clipPath id="b">
   <path d="m139.21 179h65.789v362h-65.789z"/>
  </clipPath>
  <clipPath id="a">
   <path d="m139.21 343h229.79v66h-229.79z"/>
  </clipPath>
 </defs>
 <g clip-path="url(#b)">
  <path d="m139.21 179.19h65.605v360.82h-65.605z"/>
 </g>
 <path d="m303.22 179.19h65.602v360.82h-65.602z"/>
 <g clip-path="url(#a)">
  <path d="m368.82 343.2v65.605h-229.61v-65.605z"/>
 </g>
 <path d="m588.83 260.73h-107.46v71.215c14.215-7.1094 28.711-10.664 43.492-10.664 15.922 0 30.137 3.6992 42.645 11.09 12.508 7.3906 22.176 18.051 28.996 31.98 7.1094 13.93 10.664 30.418 10.664 49.465 0 19.617-4.4102 36.961-13.219 52.027-8.8164 15.066-21.324 26.863-37.527 35.395-16.203 8.2422-34.969 12.363-56.289 12.363-19.047 0-35.961-3.4102-50.746-10.234-14.496-7.1055-27.715-17.199-39.656-30.277l31.555-29.422c15.922 18.477 35.109 27.719 57.57 27.719 16.203 0 28.852-4.9766 37.949-14.926 9.3828-9.9492 14.074-24.164 14.074-42.645 0-35.535-15.352-53.301-46.055-53.301-6.5391 0-12.652 0.85156-18.336 2.5586-5.6875 1.4219-11.941 3.8359-18.766 7.25h-38.805v-150.11h166.31z"/>
</svg>
