<?xml version="1.0" encoding="UTF-8"?>
<svg width="752pt" height="752pt" version="1.1" viewBox="0 0 752 752" xmlns="http://www.w3.org/2000/svg">
 <g>
  <path d="m513.84 149.95v236.44c0 41.637-12.582 74.383-37.746 98.234-25.168 23.848-59.742 35.742-103.72 35.688-43.98 0-78.012-12.012-102.09-36.035-24.078-24.02-36.117-56.992-36.117-98.914v-235.41h42.895v238.41c0 30.484 8.3203 53.902 24.965 70.262 16.645 16.355 41.121 24.535 73.438 24.535 30.828 0 54.562-8.207 71.207-24.621 16.641-16.414 24.965-39.953 24.965-70.605v-237.98z"/>
  <path d="m212.19 573-0.19531 34.316 323.85 1.8633 0.19922-34.316z"/>
 </g>
</svg>
